<svg width="32" height="32" viewBox="0 0 32 32" fill="none" xmlns="http://www.w3.org/2000/svg">
<mask id="path-1-inside-1_2_7" fill="white">
<path d="M28 16C28 18.7763 27.0374 21.4666 25.2761 23.6127C23.5149 25.7588 21.064 27.2278 18.3411 27.7694C15.6182 28.311 12.7917 27.8918 10.3432 26.5831C7.89479 25.2743 5.97588 23.1571 4.91345 20.5922C3.85102 18.0273 3.71081 15.1733 4.51672 12.5166C5.32262 9.85987 7.02478 7.56477 9.33316 6.02237C11.6415 4.47996 14.4133 3.78566 17.1762 4.05778C19.9391 4.3299 22.5222 5.5516 24.4853 7.51472L16 16H28Z"/>
</mask>
<path d="M28 16C28 18.7763 27.0374 21.4666 25.2761 23.6127C23.5149 25.7588 21.064 27.2278 18.3411 27.7694C15.6182 28.311 12.7917 27.8918 10.3432 26.5831C7.89479 25.2743 5.97588 23.1571 4.91345 20.5922C3.85102 18.0273 3.71081 15.1733 4.51672 12.5166C5.32262 9.85987 7.02478 7.56477 9.33316 6.02237C11.6415 4.47996 14.4133 3.78566 17.1762 4.05778C19.9391 4.3299 22.5222 5.5516 24.4853 7.51472L16 16H28Z" stroke="black" stroke-width="8" mask="url(#path-1-inside-1_2_7)"/>
</svg>
