<svg width="16" height="16" viewBox="0 0 16 16" fill="none" xmlns="http://www.w3.org/2000/svg">
<g clip-path="url(#clip0_966_33)">
<path fill-rule="evenodd" clip-rule="evenodd" d="M3.637 2.291C3.70708 2.20045 3.79695 2.12714 3.89974 2.0767C4.00253 2.02626 4.11551 2.00002 4.23 2H11.77C11.8845 2.00002 11.9975 2.02626 12.1003 2.0767C12.2031 2.12714 12.2929 2.20045 12.363 2.291L15.843 6.791C15.9562 6.93712 16.0115 7.11991 15.9982 7.30428C15.9849 7.48865 15.904 7.66162 15.771 7.79L8.521 14.79C8.38118 14.925 8.19439 15.0005 8 15.0005C7.80562 15.0005 7.61883 14.925 7.479 14.79L0.229004 7.79C0.0960011 7.66162 0.0150923 7.48865 0.00180413 7.30428C-0.011484 7.11991 0.0437847 6.93712 0.157004 6.791L3.637 2.291ZM4.598 3.5L1.754 7.177L8 13.207L14.246 7.177L11.402 3.5H4.598Z" fill="#24292E"/>
</g>
<defs>
<clipPath id="clip0_966_33">
<rect width="16" height="16" fill="white"/>
</clipPath>
</defs>
</svg>
