<svg width="16" height="16" viewBox="0 0 16 16" fill="none" xmlns="http://www.w3.org/2000/svg">
<path fill-rule="evenodd" clip-rule="evenodd" d="M10.561 1.50005C10.5573 1.50019 10.5538 1.5016 10.551 1.50405L3.286 8.57105C3.25031 8.60584 3.22584 8.65051 3.21572 8.69931C3.20561 8.74812 3.21031 8.79883 3.22923 8.84494C3.24814 8.89106 3.28041 8.93046 3.32189 8.9581C3.36337 8.98573 3.41216 9.00034 3.462 9.00005H6.75C6.87305 9.00007 6.9942 9.03037 7.10278 9.08828C7.21135 9.14618 7.30401 9.22991 7.37258 9.33208C7.44116 9.43425 7.48354 9.55172 7.496 9.67414C7.50845 9.79656 7.49059 9.92016 7.444 10.034L5.731 14.222L12.713 7.42905C12.7486 7.39432 12.7731 7.34974 12.7832 7.30103C12.7934 7.25232 12.7887 7.20169 12.77 7.15562C12.7512 7.10955 12.719 7.07014 12.6777 7.04242C12.6364 7.01471 12.5878 6.99996 12.538 7.00005H9.25C9.12453 7.00006 9.00107 6.9686 8.89091 6.90854C8.78076 6.84848 8.68743 6.76175 8.61947 6.65628C8.55152 6.55081 8.51111 6.42998 8.50194 6.30485C8.49277 6.17973 8.51514 6.0543 8.567 5.94005L10.575 1.52205L10.578 1.51605C10.5774 1.51276 10.5761 1.50967 10.574 1.50705C10.5724 1.50464 10.5704 1.5026 10.568 1.50105L10.56 1.50005H10.561ZM9.504 0.43005C9.7573 0.184165 10.0885 0.0343879 10.4404 0.00655291C10.7923 -0.021282 11.1429 0.0745705 11.4317 0.277577C11.7205 0.480584 11.9294 0.778017 12.0224 1.11857C12.1154 1.45913 12.0866 1.82145 11.941 2.14305L10.415 5.50005H12.538C14.108 5.50005 14.884 7.40905 13.758 8.50405L6.418 15.646C6.18479 15.8729 5.87234 15.9999 5.547 16H5.245C5.03993 16 4.83801 15.9496 4.65705 15.8531C4.47608 15.7566 4.32163 15.6171 4.20731 15.4469C4.09299 15.2766 4.02231 15.0809 4.0015 14.8769C3.98069 14.6729 4.0104 14.4669 4.088 14.2771L5.633 10.5H3.462C1.892 10.5 1.116 8.59105 2.242 7.49605L9.503 0.42905L9.504 0.43005Z" fill="#24292E"/>
</svg>
